:version 1.10
:name ASF
:units
  mass 1
  length 1
  angle deg
:documentation
  ASF file generated by Kaydara
:root
  axis xyz
  order  tx ty tz rx ry rz
  position 0 0 0
  orientation 0 0 0
:bonedata
  begin
    id 1
    name RightUpLegDummy
    direction -1 2.30186e-007 8.31532e-007
    length 4.46685
    axis 0 0 0 xyz
  end
  begin
    id 2
    name RightUpLeg
    direction -2.30187e-007 -1 1.24343e-010
    length 16.4045
    axis -3.49089 -0.000906625 0.000286804 xyz
    dof rx ry rz
  end
  begin
    id 3
    name RightLeg
    direction -2.30181e-007 -1 -4.17157e-009
    length 17.5097
    axis 3.68512 0.0193738 -0.131023 xyz
    dof rx ry rz
  end
  begin
    id 4
    name RightFoot
    direction 8.31421e-007 -4.51202e-011 1
    length 6.49508
    axis 4.81691e-005 -0.120479 -0.188788 xyz
    dof rx ry rz
  end
  begin
    id 5
    name RightToes
    direction 0.00124746 -0.014064 0.9999
    length 3.85082
    axis 0.000481921 0.542163 -0.142578 xyz
    dof rx ry rz
  end
  begin
    id 6
    name SpineDummy
    direction 0.0717043 0.9409 -0.331007
    length 10.0032
    axis 0 0 0 xyz
  end
  begin
    id 7
    name Spine
    direction 2.30186e-007 1 4.58806e-011
    length 9.84055
    axis -0.001389 0.000121418 2.40972e-006 xyz
    dof rx ry rz
  end
  begin
    id 8
    name Spine1
    direction 0 0 0
    length 0
    axis -0.001389 0.000121451 1.30017e-006 xyz
    dof rx ry rz
  end
  begin
    id 9
    name HEadDummy
    direction -0.00347485 0.950688 -0.310128
    length 8.00997
    axis -0.001389 0.000121451 1.30017e-006 xyz
  end
  begin
    id 10
    name HEad
    direction -0.0222688 0.980941 0.193023
    length 5.12695
    axis -0.001389 0.000121451 1.30017e-006 xyz
    dof rx ry rz
  end
  begin
    id 11
    name LeftShoulder1Dummy
    direction 0.988871 0.146793 -0.0242004
    length 3.5792
    axis -0.001389 0.000121451 1.30017e-006 xyz
  end
  begin
    id 12
    name LeftShoulder1
    direction 0.993832 0.108932 0.020779
    length 4.16823
    axis -0.001389 0.000121451 1.30017e-006 xyz
    dof rx ry rz
  end
  begin
    id 13
    name LeftArm
    direction 1 3.44807e-006 -8.31404e-007
    length 9.91437
    axis -23.1894 0.134784 0.967509 xyz
    dof rx ry rz
  end
  begin
    id 14
    name LeftForeArm
    direction 1 3.44842e-006 -8.31581e-007
    length 9.08575
    axis -9.91835 -0.06569 -0.177793 xyz
    dof rx ry rz
  end
  begin
    id 15
    name LeftHand
    direction 0.992938 -0.0411636 0.11126
    length 5.32135
    axis -0.00960232 -0.00340091 0.185173 xyz
    dof rx ry rz
  end
  begin
    id 16
    name RightShoulderDummy
    direction -0.988871 0.146793 -0.0241962
    length 3.5792
    axis -0.001389 0.000121451 1.30017e-006 xyz
  end
  begin
    id 17
    name RightShoulder
    direction -0.993832 0.108933 0.0207785
    length 4.16823
    axis 0.215806 0.000203643 -0.0068026 xyz
    dof rx ry rz
  end
  begin
    id 18
    name RightArm
    direction -1 3.90912e-006 8.31284e-007
    length 9.91437
    axis -23.2009 -0.134239 -0.964101 xyz
    dof rx ry rz
  end
  begin
    id 19
    name RightForeArm
    direction -1 3.90882e-006 8.31502e-007
    length 9.08575
    axis -9.92322 0.0658061 0.178867 xyz
    dof rx ry rz
  end
  begin
    id 20
    name RightHand
    direction -0.992843 -0.0414603 0.112003
    length 5.28593
    axis -0.00960638 0.00330671 -0.185228 xyz
    dof rx ry rz
  end
  begin
    id 21
    name LeftUpLegDummy
    direction 1 -2.30186e-007 -8.31532e-007
    length 4.46685
    axis 0 0 0 xyz
  end
  begin
    id 22
    name LeftUpLeg
    direction -2.30187e-007 -1 6.00931e-010
    length 16.4045
    axis -3.48766 0.00143442 -0.000524262 xyz
    dof rx ry rz
  end
  begin
    id 23
    name LeftLeg
    direction -2.30187e-007 -1 1.6669e-009
    length 17.5097
    axis 3.68178 -0.00654042 -0.000285133 xyz
    dof rx ry rz
  end
  begin
    id 24
    name LeftFoot
    direction 8.31532e-007 -4.54478e-011 1
    length 6.49508
    axis 1.87233e-006 4.66016e-005 -8.6538e-006 xyz
    dof rx ry rz
  end
  begin
    id 25
    name LeftToes
    direction 0.00818058 -0.00485161 0.999955
    length 3.85048
    axis 1.06247e-005 4.65869e-005 -8.65513e-006 xyz
    dof rx ry rz
  end
:hierarchy
  begin
    root RightUpLegDummy SpineDummy LeftUpLegDummy
    RightUpLegDummy RightUpLeg
    RightUpLeg RightLeg
    RightLeg RightFoot
    RightFoot RightToes
    SpineDummy Spine
    Spine Spine1
    Spine1 HEadDummy LeftShoulder1Dummy RightShoulderDummy
    HEadDummy HEad
    LeftShoulder1Dummy LeftShoulder1
    LeftShoulder1 LeftArm
    LeftArm LeftForeArm
    LeftForeArm LeftHand
    RightShoulderDummy RightShoulder
    RightShoulder RightArm
    RightArm RightForeArm
    RightForeArm RightHand
    LeftUpLegDummy LeftUpLeg
    LeftUpLeg LeftLeg
    LeftLeg LeftFoot
    LeftFoot LeftToes
  end

:SAMPLES-PER-SECOND 30
:FULLY-SPECIFIED
:DEGREES
121
root  -70.8201 30.163 20.0832 20.6992 45.8092 6.97269
RightUpLeg  -26.6341 -6.15043 -17.9312
RightLeg  47.3424 0.108469 0.064767
RightFoot  -22.0657 -0.0303394 0.221949
RightToes  -43.215 -0.244662 -0.332553
Spine  12.4904 0.401021 5.68407
Spine1  24.6443 1.88822 7.5878
HEad  18.691 9.42529 -13.763
LeftShoulder1  0 -2.42657e-020 -4.95415e-022
LeftArm  -23.4044 8.85611 -91.4417
LeftForeArm  36.4061 -51.3832 -12.7764
LeftHand  0.172218 -9.85679 -2.3686
RightShoulder  0 2.42657e-020 1.07489e-018
RightArm  -69.0032 2.57128 69.2104
RightForeArm  14.3951 41.4039 8.94999
RightHand  -0.0701003 20.192 -0.0236962
LeftUpLeg  -56.3437 8.82549 -9.69282
LeftLeg  42.9905 -0.635461 -0.526155
LeftFoot  7.0278 0.00176916 -0.0288199
LeftToes  -16.4536 2.34596e-006 -6.06653e-008
122
root  -71.2908 31.0092 19.7742 20.7556 44.4704 6.07401
RightUpLeg  -26.0545 -6.77723 -17.0391
RightLeg  41.1443 1.57387 1.18094
RightFoot  -17.6381 -0.117889 -0.382299
RightToes  -46.9276 -0.276052 -0.350819
Spine  12.0008 -0.484699 4.82945
Spine1  23.6106 -0.561664 7.09248
HEad  18.8402 11.8544 -14.4457
LeftShoulder1  0 -2.42657e-020 -4.95415e-022
LeftArm  -23.2548 10.3953 -90.1828
LeftForeArm  36.5881 -51.7076 -12.9291
LeftHand  0.23542 -10.3253 -2.97714
RightShoulder  0 2.42657e-020 1.07489e-018
RightArm  -61.0427 -2.43412 71.7521
RightForeArm  19.6158 53.8301 13.9985
RightHand  -0.59168 18.1694 -3.33021
LeftUpLeg  -53.5495 12.0858 -10.3432
LeftLeg  35.7616 3.59524 2.2463
LeftFoot  7.85325 -0.0408306 0.628784
LeftToes  -15.6909 2.34596e-006 -6.06653e-008
123
root  -71.6521 31.4868 19.6062 20.2926 42.9675 5.31516
RightUpLeg  -25.8591 -6.19451 -16.4223
RightLeg  37.6829 2.22862 1.48387
RightFoot  -14.7737 -0.11211 -0.487212
RightToes  -45.2898 -0.262059 -0.343012
Spine  11.8796 -1.10996 4.37875
Spine1  23.3365 -1.81872 6.04591
HEad  19.1144 14.7082 -14.8171
LeftShoulder1  0 -2.42657e-020 -4.95415e-022
LeftArm  -22.6845 11.556 -88.5878
LeftForeArm  37.623 -53.3883 -13.7588
LeftHand  0.301917 -10.6092 -3.62317
RightShoulder  0 2.42657e-020 1.07489e-018
RightArm  -53.5345 -8.52587 73.6896
RightForeArm  38.1281 70.1773 29.5068
RightHand  -1.28519 13.962 -10.1017
LeftUpLeg  -51.9673 14.9663 -9.79344
LeftLeg  34.2733 7.34694 4.31906
LeftFoot  7.35949 -0.0719153 1.12882
LeftToes  -20.0675 2.34596e-006 -6.06653e-008
124
root  -71.8968 31.7585 19.4946 19.2704 41.6622 4.74153
RightUpLeg  -25.7227 -6.62772 -15.9942
RightLeg  36.313 4.04593 2.57039
RightFoot  -12.7448 -0.136589 -0.845489
RightToes  -48.2142 -0.287198 -0.356669
Spine  11.9727 -1.52174 3.83514
Spine1  23.4507 -2.39975 4.48073
HEad  19.5134 17.3982 -14.1196
LeftShoulder1  0 -2.42657e-020 -4.95415e-022
LeftArm  -21.7021 11.8418 -86.4688
LeftForeArm  38.606 -55.0623 -14.6568
LeftHand  0.357464 -10.706 -4.18621
RightShoulder  0 2.42657e-020 1.07489e-018
RightArm  -45.116 -12.5675 74.5792
RightForeArm  87.0706 79.331 71.0491
RightHand  -1.16453 7.71823 -16.7792
LeftUpLeg  -50.2499 13.7601 -5.71329
LeftLeg  37.8243 5.12234 3.45986
LeftFoot  7.05097 -0.047883 0.777186
LeftToes  -18.9226 2.34596e-006 -6.06653e-008
125
root  -71.9694 31.9697 19.3936 17.7324 38.9054 3.95059
RightUpLeg  -25.0229 -4.73103 -15.9917
RightLeg  34.0092 5.0737 2.94868
RightFoot  -10.9248 -0.120064 -0.878012
RightToes  -47.2607 -0.278925 -0.352358
Spine  12.23 -1.37638 3.09195
Spine1  23.7944 -1.89135 2.73857
HEad  19.9955 19.6999 -13.5648
LeftShoulder1  0 -2.42657e-020 -4.95415e-022
LeftArm  -20.7625 10.876 -84.6762
LeftForeArm  38.6442 -54.884 -14.5573
LeftHand  0.286737 -8.42856 -4.26329
RightShoulder  0 2.42657e-020 1.07489e-018
RightArm  -36.2132 -13.9235 74.6843
RightForeArm  138.744 78.8913 114.586
RightHand  -2.12908 11.1551 -21.189
LeftUpLeg  -47.7426 11.8946 -0.856165
LeftLeg  42.8958 3.39191 2.75813
LeftFoot  5.85494 -0.0249453 0.451114
LeftToes  -17.5709 2.34596e-006 -6.06653e-008
